HIERARCHY
ROOT hip
{
  OFFSET 0 0 0
  CHANNELS 6 Xposition Yposition Zposition Zrotation Yrotation Xrotation
  JOINT abdomen
  {
    OFFSET 0 20.6881 -0.73152
    CHANNELS 3 Zrotation Xrotation Yrotation
    JOINT chest
    {
      OFFSET 0 11.7043 -0.48768
      CHANNELS 3 Zrotation Xrotation Yrotation
      JOINT neck
      {
        OFFSET 0 22.1894 -2.19456
        CHANNELS 3 Zrotation Xrotation Yrotation
        JOINT head
        {
          OFFSET -0.24384 7.07133 1.2192
          CHANNELS 3 Zrotation Xrotation Yrotation
          JOINT leftEye
          {
            OFFSET 4.14528 8.04674 8.04672
            CHANNELS 3 Zrotation Xrotation Yrotation
            End Site
            {
              OFFSET 1 0 0
            }
          }
          JOINT rightEye
          {
            OFFSET -3.6576 8.04674 8.04672
            CHANNELS 3 Zrotation Xrotation Yrotation
            End Site
            {
              OFFSET 1 0 0
            }
          }
        }
      }
      JOINT rCollar
      {
        OFFSET -2.68224 19.2634 -4.8768
        CHANNELS 3 Zrotation Xrotation Yrotation
        JOINT rShldr
        {
          OFFSET -8.77824 -1.95073 1.46304
          CHANNELS 3 Zrotation Xrotation Yrotation
          JOINT rForeArm
          {
            OFFSET -28.1742 -1.7115 0.48768
            CHANNELS 3 Zrotation Xrotation Yrotation
            JOINT rHand
            {
              OFFSET -22.5879 0.773209 7.07136
              CHANNELS 3 Zrotation Xrotation Yrotation
              JOINT rThumb1
              {
                OFFSET -1.2192 -0.487915 3.41376
                CHANNELS 3 Zrotation Xrotation Yrotation
                JOINT rThumb2
                {
                  OFFSET -3.37035 -0.52449 3.41376
                  CHANNELS 3 Zrotation Xrotation Yrotation
                  End Site
                  {
                    OFFSET -1.78271 -1.18214 1.43049
                  }
                }
              }
              JOINT rIndex1
              {
                OFFSET -7.75947 0.938293 5.60832
                CHANNELS 3 Zrotation Xrotation Yrotation
                JOINT rIndex2
                {
                  OFFSET -2.54057 -0.884171 1.56538
                  CHANNELS 3 Zrotation Xrotation Yrotation
                  End Site
                  {
                    OFFSET -1.62519 -0.234802 1.16502
                  }
                }
              }
              JOINT rMid1
              {
                OFFSET -8.24714 1.18213 3.41376
                CHANNELS 3 Zrotation Xrotation Yrotation
                JOINT rMid2
                {
                  OFFSET -3.10165 -0.590103 1.0647
                  CHANNELS 3 Zrotation Xrotation Yrotation
                  End Site
                  {
                    OFFSET -2.48547 -0.328903 0.83742
                  }
                }
              }
              JOINT rRing1
              {
                OFFSET -8.82822 0.546677 1.51678
                CHANNELS 3 Zrotation Xrotation Yrotation
                JOINT rRing2
                {
                  OFFSET -2.60934 -0.819778 -0.0198488
                  CHANNELS 3 Zrotation Xrotation Yrotation
                  End Site
                  {
                    OFFSET -2.33842 -0.294052 0.168128
                  }
                }
              }
              JOINT rPinky1
              {
                OFFSET -8.27202 -0.0477905 -0.4584
                CHANNELS 3 Zrotation Xrotation Yrotation
                JOINT rPinky2
                {
                  OFFSET -1.82734 -0.647385 -0.700984
                  CHANNELS 3 Zrotation Xrotation Yrotation
                  End Site
                  {
                    OFFSET -1.69225 -0.51767 -0.607171
                  }
                }
              }
            }
          }
        }
      }
      JOINT lCollar
      {
        OFFSET 2.68224 19.2634 -4.8768
        CHANNELS 3 Zrotation Xrotation Yrotation
        JOINT lShldr
        {
          OFFSET 8.77824 -1.95073 1.46304
          CHANNELS 3 Zrotation Xrotation Yrotation
          JOINT lForeArm
          {
            OFFSET 28.1742 -1.7115 0.48768
            CHANNELS 3 Zrotation Xrotation Yrotation
            JOINT lHand
            {
              OFFSET 22.5879 0.773209 7.07136
              CHANNELS 3 Zrotation Xrotation Yrotation
              JOINT lThumb1
              {
                OFFSET 1.2192 -0.487915 3.41376
                CHANNELS 3 Zrotation Xrotation Yrotation
                JOINT lThumb2
                {
                  OFFSET 3.37035 -0.52449 3.41376
                  CHANNELS 3 Zrotation Xrotation Yrotation
                  End Site
                  {
                    OFFSET 1.78271 -1.18214 1.43049
                  }
                }
              }
              JOINT lIndex1
              {
                OFFSET 7.75947 0.938293 5.60832
                CHANNELS 3 Zrotation Xrotation Yrotation
                JOINT lIndex2
                {
                  OFFSET 2.54057 -0.884171 1.56538
                  CHANNELS 3 Zrotation Xrotation Yrotation
                  End Site
                  {
                    OFFSET 1.62519 -0.234802 1.16502
                  }
                }
              }
              JOINT lMid1
              {
                OFFSET 8.24714 1.18213 3.41376
                CHANNELS 3 Zrotation Xrotation Yrotation
                JOINT lMid2
                {
                  OFFSET 3.10165 -0.590103 1.0647
                  CHANNELS 3 Zrotation Xrotation Yrotation
                  End Site
                  {
                    OFFSET 2.48547 -0.328903 0.83742
                  }
                }
              }
              JOINT lRing1
              {
                OFFSET 8.82822 0.546677 1.51678
                CHANNELS 3 Zrotation Xrotation Yrotation
                JOINT lRing2
                {
                  OFFSET 2.60934 -0.819778 -0.0198488
                  CHANNELS 3 Zrotation Xrotation Yrotation
                  End Site
                  {
                    OFFSET 2.33842 -0.294052 0.168128
                  }
                }
              }
              JOINT lPinky1
              {
                OFFSET 8.27202 -0.0477905 -0.4584
                CHANNELS 3 Zrotation Xrotation Yrotation
                JOINT lPinky2
                {
                  OFFSET 1.82734 -0.647385 -0.700984
                  CHANNELS 3 Zrotation Xrotation Yrotation
                  End Site
                  {
                    OFFSET 1.69225 -0.51767 -0.607171
                  }
                }
              }
            }
          }
        }
      }
    }
  }
  JOINT rButtock
  {
    OFFSET -8.77824 4.35084 1.2192
    CHANNELS 3 Zrotation Xrotation Yrotation
    JOINT rThigh
    {
      OFFSET 0 -1.70687 -2.19456
      CHANNELS 3 Zrotation Xrotation Yrotation
      JOINT rShin
      {
        OFFSET 0 -36.8199 0.73152
        CHANNELS 3 Zrotation Xrotation Yrotation
        JOINT rFoot
        {
          OFFSET 0.73152 -45.1104 -5.12064
          CHANNELS 3 Zrotation Xrotation Yrotation
          End Site
          {
            OFFSET -1.1221 -3.69964 12.103
          }
        }
      }
    }
  }
  JOINT lButtock
  {
    OFFSET 8.77824 4.35084 1.2192
    CHANNELS 3 Zrotation Xrotation Yrotation
    JOINT lThigh
    {
      OFFSET 0 -1.70687 -2.19456
      CHANNELS 3 Zrotation Xrotation Yrotation
      JOINT lShin
      {
        OFFSET 0 -36.8199 0.73152
        CHANNELS 3 Zrotation Xrotation Yrotation
        JOINT lFoot
        {
          OFFSET -0.73152 -45.1104 -5.12064
          CHANNELS 3 Zrotation Xrotation Yrotation
          End Site
          {
            OFFSET 1.1221 -3.69964 12.103
          }
        }
      }
    }
  }
}
MOTION
Frames:	5
Frame Time:	0.00833333
10.8755 84.191 3.16859 7.2289 83.2892 20.5582 -4.70494 -15.1406 -5.9063 -0.564424 2.10606 -1.29782 -7.30994 9.32226 -21.2185 12.0689 -24.6828 -38.9405 -0.0 0.0 0.0 -0.0 0.0 0.0 7.26169e-14 -7.58078e-13 -7.65931e-14 42.894 -64.3451 36.3366 -24.429 -19.9208 50.9962 -163.707 15.2164 177.809 1.61895e-10 -5.67761e-10 -5.48091e-11 2.40599e-10 -9.31964e-10 -1.11288e-10 1.61896e-10 -5.67756e-10 -5.48261e-11 7.73091 5.47488 0.417314 1.61894e-10 -5.6776e-10 -5.48125e-11 2.90554 0.965183 0.102902 1.61899e-10 -5.6776e-10 -5.48102e-11 10.2786 0.731801 0.0259123 1.61894e-10 -5.67761e-10 -5.48014e-11 2.22167 -0.733487 -0.20892 7.25018e-14 -7.58072e-13 -7.67794e-14 -93.891 56.6106 58.4516 28.0596 -40.0856 -84.0777 164.0 0.324158 -179.954 3.83796e-11 -6.04808e-10 -6.16327e-10 5.77457e-11 -9.74534e-10 -9.18126e-10 3.83738e-11 -6.04802e-10 -6.16318e-10 -7.73091 5.47488 -0.417314 3.83805e-11 -6.04806e-10 -6.16333e-10 -2.90554 0.965183 -0.102902 3.83712e-11 -6.04806e-10 -6.16329e-10 -10.2786 0.731801 -0.0259123 3.83823e-11 -6.04808e-10 -6.16337e-10 -2.22167 -0.733487 0.20892 -2.03217e-16 0.0 -3.88251e-19 -4.80594 -16.7774 -5.09002 0.482653 7.55848 0.0236549 0.0117175 -1.74595 11.7582 2.03217e-16 0.0 3.88251e-19 4.85591 -16.0196 11.0792 0.0880062 13.4583 -0.209108 0.884123 -9.98063 2.19508
10.8697 84.1891 3.18 7.5462 83.201 20.8868 -4.75677 -15.1276 -5.89356 -0.531398 2.10882 -1.29303 -7.35148 9.31264 -21.2015 12.1084 -24.6448 -38.8947 -0.0 0.0 0.0 -0.0 0.0 0.0 7.47931e-14 -6.93366e-13 -3.32964e-14 42.8704 -64.3414 36.3461 -24.4248 -19.9126 50.9824 -163.704 15.2979 177.797 1.89782e-10 1.43271e-10 3.05934e-10 3.11906e-10 2.74609e-10 4.66406e-10 1.89783e-10 1.43274e-10 3.05918e-10 7.73091 5.47488 0.417314 1.89781e-10 1.43271e-10 3.05931e-10 2.90554 0.965183 0.102902 1.89785e-10 1.43271e-10 3.05934e-10 10.2786 0.731801 0.0259123 1.89782e-10 1.4327e-10 3.05944e-10 2.22167 -0.733487 -0.20892 7.46979e-14 -6.93357e-13 -3.34952e-14 -93.8913 56.6222 58.4337 28.0589 -40.0921 -84.0867 164.0 0.283203 -179.96 4.78801e-11 -9.91361e-10 -6.35367e-10 7.05181e-11 -1.63035e-09 -9.34146e-10 4.78753e-11 -9.91357e-10 -6.3536e-10 -7.73091 5.47488 -0.417314 4.78813e-11 -9.91359e-10 -6.35373e-10 -2.90554 0.965183 -0.102902 4.78714e-11 -9.91359e-10 -6.3537e-10 -10.2786 0.731801 -0.0259123 4.78825e-11 -9.91361e-10 -6.35376e-10 -2.22167 -0.733487 0.20892 -2.03217e-16 0.0 -3.88251e-19 -4.78674 -16.792 -5.02834 0.482767 7.56206 0.0233 0.00419295 -1.70738 11.7567 2.03217e-16 0.0 3.88251e-19 4.86348 -16.0164 11.0809 0.0874702 13.477 -0.209875 0.90067 -9.99543 2.25979
10.8645 84.1881 3.2037 7.4777 83.1096 20.8276 -4.81225 -15.1165 -5.85755 -0.501397 2.11053 -1.28127 -7.38975 9.30638 -21.1856 12.1425 -24.623 -38.8521 -0.0 0.0 0.0 -0.0 0.0 0.0 7.10819e-14 -5.92188e-13 1.2424e-15 42.7924 -64.3523 36.3014 -24.4268 -19.9165 50.9891 -163.702 15.348 177.789 2.27923e-10 6.15235e-10 4.91326e-10 3.84954e-10 1.08552e-09 7.65847e-10 2.27927e-10 6.15236e-10 4.91311e-10 7.73091 5.47488 0.417314 2.27922e-10 6.15235e-10 4.91324e-10 2.90554 0.965183 0.102902 2.27926e-10 6.15235e-10 4.91327e-10 10.2786 0.731801 0.0259123 2.27923e-10 6.15235e-10 4.91337e-10 2.22167 -0.733487 -0.20892 7.09951e-14 -5.92175e-13 1.03119e-15 -93.9187 56.6444 58.4397 28.0577 -40.0993 -84.099 164.0 0.227142 -179.968 6.29338e-11 -9.8044e-10 -5.94311e-10 9.20926e-11 -1.60938e-09 -8.73084e-10 6.29312e-11 -9.80437e-10 -5.94305e-10 -7.73091 5.47488 -0.417314 6.29349e-11 -9.80437e-10 -5.94315e-10 -2.90554 0.965183 -0.102902 6.29253e-11 -9.80438e-10 -5.94314e-10 -10.2786 0.731801 -0.0259123 6.29362e-11 -9.8044e-10 -5.9432e-10 -2.22167 -0.733487 0.20892 -2.03217e-16 0.0 -3.88251e-19 -4.76384 -16.8007 -4.9546 0.48287 7.564 0.022873 0.000773844 -1.69164 11.7635 2.03217e-16 0.0 3.88251e-19 4.86534 -15.9967 11.059 0.0876848 13.4855 -0.209971 0.927764 -10.0023 2.36553
10.8628 84.188 3.23392 7.1956 83.0231 20.5372 -4.87225 -15.1086 -5.80496 -0.47143 2.11213 -1.26447 -7.42892 9.304 -21.1706 12.1766 -24.6129 -38.8107 -0.0 0.0 0.0 -0.0 0.0 0.0 6.18172e-14 -4.55362e-13 3.34952e-14 42.6718 -64.3736 36.2177 -24.4328 -19.9283 51.009 -163.7 15.3988 177.782 2.68265e-10 1.05827e-09 6.25716e-10 4.57494e-10 1.85133e-09 9.85966e-10 2.68273e-10 1.05827e-09 6.25701e-10 7.73091 5.47488 0.417314 2.68265e-10 1.05827e-09 6.25714e-10 2.90554 0.965183 0.102902 2.6827e-10 1.05827e-09 6.25718e-10 10.2786 0.731801 0.0259123 2.68265e-10 1.05827e-09 6.25728e-10 2.22167 -0.733487 -0.20892 6.17346e-14 -4.55346e-13 3.32716e-14 -93.9657 56.6726 58.4612 28.0563 -40.1072 -84.1132 164.0 0.156265 -179.978 8.09361e-11 -7.4902e-10 -4.8574e-10 1.18187e-10 -1.21561e-09 -7.17288e-10 8.09363e-11 -7.49019e-10 -4.85733e-10 -7.73091 5.47488 -0.417314 8.09368e-11 -7.49018e-10 -4.85739e-10 -2.90554 0.965183 -0.102902 8.09281e-11 -7.49019e-10 -4.85742e-10 -10.2786 0.731801 -0.0259123 8.09388e-11 -7.49022e-10 -4.85746e-10 -2.22167 -0.733487 0.20892 -2.03217e-16 0.0 -3.88251e-19 -4.73562 -16.8066 -4.869 0.482961 7.56466 0.0223697 -4.15528e-05 -1.69013 11.7749 2.03217e-16 0.0 3.88251e-19 4.8653 -15.9659 11.0211 0.0883929 13.4878 -0.209658 0.963056 -10.0043 2.50334
10.8632 84.1872 3.27389 6.9894 82.9431 20.3215 -4.94039 -15.0956 -5.75093 -0.440763 2.11559 -1.24707 -7.4612 9.29808 -21.158 12.1959 -24.6165 -38.7776 -0.0 0.0 0.0 -0.0 0.0 0.0 4.88991e-14 -2.97247e-13 6.13748e-14 42.543 -64.401 36.1346 -24.4427 -19.9479 51.0417 -163.699 15.4212 177.778 3.00262e-10 1.39316e-09 6.95249e-10 5.12238e-10 2.43307e-09 1.10307e-09 3.00274e-10 1.39316e-09 6.95235e-10 7.73091 5.47488 0.417314 3.00262e-10 1.39316e-09 6.95248e-10 2.90554 0.965183 0.102902 3.00268e-10 1.39316e-09 6.95252e-10 10.2786 0.731801 0.0259123 3.00262e-10 1.39316e-09 6.95262e-10 2.22167 -0.733487 -0.20892 4.88203e-14 -2.97228e-13 6.11387e-14 -94.0053 56.71 58.4784 28.055 -40.1147 -84.1271 164.0 0.0958862 -179.987 9.70166e-11 -4.53039e-10 -3.65601e-10 1.41618e-10 -7.13065e-10 -5.46089e-10 9.70196e-11 -4.53039e-10 -3.65593e-10 -7.73091 5.47488 -0.417314 9.7017e-11 -4.53038e-10 -3.65597e-10 -2.90554 0.965183 -0.102902 9.70094e-11 -4.53039e-10 -3.65603e-10 -10.2786 0.731801 -0.0259123 9.70196e-11 -4.53041e-10 -3.65606e-10 -2.22167 -0.733487 0.20892 -2.03217e-16 0.0 -3.88251e-19 -4.70232 -16.8106 -4.77963 0.483049 7.56467 0.0218616 -0.000304269 -1.69124 11.7855 2.03217e-16 0.0 3.88251e-19 4.86925 -15.9316 10.9816 0.0891881 13.4891 -0.209156 0.99944 -10.0058 2.64538
